<svg width="60" height="64" viewBox="0 0 60 64" fill="none" xmlns="http://www.w3.org/2000/svg">
<path d="M5.22445 57.665C8.82445 62 15.5205 62 28.9185 62H31.0784C44.4764 62 51.1755 62 54.7755 57.665M5.22445 57.665C1.62445 53.327 2.86045 46.745 5.32945 33.575C7.08445 24.215 7.96045 19.532 11.2935 16.766M54.7755 57.665C58.3755 53.327 57.1395 46.745 54.6705 33.575C52.9155 24.215 52.0365 19.532 48.7035 16.766M48.7035 16.766C45.3735 14 40.6065 14 31.0815 14H28.9155C19.3905 14 14.6265 14 11.2935 16.766" stroke="#71717A" stroke-width="4"/>
<path d="M20.9984 14V11C20.9984 8.61305 21.9466 6.32387 23.6345 4.63604C25.3223 2.94821 27.6115 2 29.9984 2C32.3854 2 34.6745 2.94821 36.3624 4.63604C38.0502 6.32387 38.9984 8.61305 38.9984 11V14" stroke="#71717A" stroke-width="4" stroke-linecap="round"/>
</svg>
